<svg width="1100" height="232" viewBox="0 0 1100 232" fill="none" xmlns="http://www.w3.org/2000/svg">
<path d="M0 200.129V187.791H17.154V59.5861C17.154 49.3545 25.28 41.2286 35.5125 41.2286H106.837C105.332 47.248 104.43 53.5677 104.43 60.1888C104.43 62.2954 104.43 64.1006 104.73 66.2072H41.8323V187.791H105.633V188.995C105.633 192.907 108.643 195.917 112.556 195.917H147.466C151.378 195.917 154.387 192.908 154.387 188.995V187.791H218.188V135.726H234.44C237.449 135.726 240.458 135.426 243.468 135.125V187.491H260.622V199.829C260.622 210.964 251.593 219.993 240.459 219.993H20.1637C9.02905 220.293 0 211.264 0 200.129ZM119.477 60.1888C119.477 27.0852 146.563 0 179.667 0H234.139C267.243 0 294.329 27.0852 294.329 60.1898C294.329 93.2944 267.243 120.38 234.139 120.38H193.51L165.823 148.067C164.017 149.873 160.707 148.668 160.707 145.96V117.37C136.631 109.244 119.477 86.9746 119.477 60.1898" fill="#00305C"/>
<path d="M205.852 86.6577V48.3786M228.942 86.6577V25.4111M182.763 86.6577V71.3461" stroke="white" stroke-width="20" stroke-linecap="round" stroke-linejoin="round"/>
<path d="M331.625 104V14.4H375.785C385.769 14.4 394.558 16.2347 402.153 19.904C409.748 23.488 415.678 28.608 419.945 35.264C424.212 41.92 426.345 49.856 426.345 59.072C426.345 68.3733 424.212 76.3947 419.945 83.136C415.678 89.792 409.748 94.9547 402.153 98.624C394.558 102.208 385.769 104 375.785 104H331.625ZM361.833 80.448H374.505C378.772 80.448 382.484 79.6373 385.641 78.016C388.884 76.3947 391.401 74.0053 393.193 70.848C394.985 67.6053 395.881 63.68 395.881 59.072C395.881 54.5493 394.985 50.7093 393.193 47.552C391.401 44.3947 388.884 42.0053 385.641 40.384C382.484 38.7627 378.772 37.952 374.505 37.952H361.833V80.448ZM426.397 104L465.565 14.4H495.261L534.429 104H503.197L474.269 28.736H486.045L457.117 104H426.397ZM449.693 88.384L457.373 66.624H498.589L506.269 88.384H449.693ZM554.206 104V37.824H527.966V14.4H610.654V37.824H584.414V104H554.206ZM604.272 104L643.44 14.4H673.136L712.304 104H681.072L652.144 28.736H663.92L634.992 104H604.272ZM627.568 88.384L635.248 66.624H676.464L684.144 88.384H627.568ZM788.908 106.048C781.74 106.048 775.34 104.939 769.708 102.72C764.076 100.416 759.639 97.3013 756.396 93.376C753.153 89.4507 751.532 85.0133 751.532 80.064C751.532 75.1147 752.599 70.7627 754.732 67.008C756.951 63.168 760.321 59.7547 764.844 56.768C769.452 53.696 775.255 50.8373 782.252 48.192C786.519 46.5707 789.847 45.0773 792.236 43.712C794.711 42.3467 796.46 41.0667 797.484 39.872C798.508 38.592 799.02 37.3547 799.02 36.16C799.02 34.7947 798.551 33.6853 797.612 32.832C796.759 31.9787 795.436 31.552 793.644 31.552C791.681 31.552 790.145 32.064 789.036 33.088C788.012 34.0267 787.5 35.2213 787.5 36.672C787.5 37.6107 787.713 38.5493 788.14 39.488C788.652 40.4267 789.591 41.5787 790.956 42.944C792.321 44.224 794.241 45.9307 796.716 48.064L843.82 88.128L828.332 105.664L774.06 59.072C771.159 56.6827 768.769 54.2933 766.892 51.904C765.015 49.4293 763.607 46.9547 762.668 44.48C761.729 42.0053 761.26 39.5307 761.26 37.056C761.26 32.2773 762.583 28.096 765.228 24.512C767.959 20.8427 771.713 17.984 776.492 15.936C781.356 13.888 787.031 12.864 793.516 12.864C799.489 12.864 804.695 13.8027 809.132 15.68C813.569 17.472 817.025 20.0747 819.5 23.488C821.975 26.9013 823.212 30.912 823.212 35.52C823.212 39.616 822.145 43.328 820.012 46.656C817.964 49.984 814.764 53.0133 810.412 55.744C806.145 58.4747 800.727 61.0773 794.156 63.552C790.743 64.832 787.969 66.1547 785.836 67.52C783.703 68.8853 782.167 70.336 781.228 71.872C780.289 73.3227 779.82 74.9867 779.82 76.864C779.82 78.2293 780.247 79.5093 781.1 80.704C782.039 81.8987 783.319 82.8373 784.94 83.52C786.647 84.2027 788.695 84.544 791.084 84.544C795.692 84.544 800.001 83.3493 804.012 80.96C808.108 78.4853 811.607 74.944 814.508 70.336C817.495 65.728 819.543 60.224 820.652 53.824L843.82 60.736C841.857 69.5253 838.273 77.3333 833.068 84.16C827.948 90.9867 821.591 96.3627 813.996 100.288C806.487 104.128 798.124 106.048 788.908 106.048ZM321.897 220L361.065 130.4H390.761L429.929 220H398.697L369.769 144.736H381.545L352.617 220H321.897ZM345.193 204.384L352.873 182.624H394.089L401.769 204.384H345.193ZM434.75 220V130.4H459.582L505.15 184.928H493.63V130.4H523.07V220H498.238L452.67 165.472H464.19V220H434.75ZM527.897 220L567.065 130.4H596.761L635.929 220H604.697L575.769 144.736H587.545L558.617 220H527.897ZM551.193 204.384L558.873 182.624H600.089L607.769 204.384H551.193ZM640.75 220V130.4H670.958V196.576H711.406V220H640.75ZM733.79 220V180.704L740.702 198.752L699.998 130.4H731.87L759.39 177.12H740.83L768.606 130.4H797.79L757.342 198.752L763.998 180.704V220H733.79ZM818.581 220V153.824H792.341V130.4H875.029V153.824H848.789V220H818.581ZM882.875 220V130.4H913.083V220H882.875ZM973.961 222.048C966.793 222.048 960.137 220.939 953.993 218.72C947.934 216.416 942.644 213.173 938.121 208.992C933.684 204.811 930.228 199.861 927.753 194.144C925.278 188.427 924.041 182.112 924.041 175.2C924.041 168.288 925.278 161.973 927.753 156.256C930.228 150.539 933.684 145.589 938.121 141.408C942.644 137.227 947.934 134.027 953.993 131.808C960.137 129.504 966.793 128.352 973.961 128.352C982.75 128.352 990.516 129.888 997.257 132.96C1004.08 136.032 1009.72 140.469 1014.15 146.272L995.081 163.296C992.436 159.968 989.492 157.408 986.249 155.616C983.092 153.739 979.508 152.8 975.497 152.8C972.34 152.8 969.481 153.312 966.921 154.336C964.361 155.36 962.142 156.853 960.265 158.816C958.473 160.779 957.065 163.168 956.041 165.984C955.017 168.715 954.505 171.787 954.505 175.2C954.505 178.613 955.017 181.728 956.041 184.544C957.065 187.275 958.473 189.621 960.265 191.584C962.142 193.547 964.361 195.04 966.921 196.064C969.481 197.088 972.34 197.6 975.497 197.6C979.508 197.6 983.092 196.704 986.249 194.912C989.492 193.035 992.436 190.432 995.081 187.104L1014.15 204.128C1009.72 209.845 1004.08 214.283 997.257 217.44C990.516 220.512 982.75 222.048 973.961 222.048ZM1055.03 222.048C1047.52 222.048 1040.27 221.195 1033.27 219.488C1026.28 217.781 1020.52 215.563 1015.99 212.832L1025.72 190.816C1029.99 193.291 1034.72 195.296 1039.93 196.832C1045.22 198.283 1050.34 199.008 1055.29 199.008C1058.19 199.008 1060.45 198.837 1062.07 198.496C1063.78 198.069 1065.02 197.515 1065.79 196.832C1066.55 196.064 1066.94 195.168 1066.94 194.144C1066.94 192.523 1066.04 191.243 1064.25 190.304C1062.46 189.365 1060.07 188.597 1057.08 188C1054.18 187.317 1050.98 186.635 1047.48 185.952C1043.98 185.184 1040.44 184.203 1036.86 183.008C1033.36 181.813 1030.12 180.235 1027.13 178.272C1024.23 176.309 1021.88 173.749 1020.09 170.592C1018.3 167.349 1017.4 163.339 1017.4 158.56C1017.4 153.013 1018.94 147.979 1022.01 143.456C1025.17 138.848 1029.82 135.179 1035.96 132.448C1042.19 129.717 1049.91 128.352 1059.13 128.352C1065.19 128.352 1071.16 128.992 1077.05 130.272C1082.94 131.552 1088.23 133.515 1092.92 136.16L1083.83 158.048C1079.4 155.829 1075.09 154.165 1070.91 153.056C1066.81 151.947 1062.8 151.392 1058.87 151.392C1055.97 151.392 1053.67 151.648 1051.96 152.16C1050.25 152.672 1049.02 153.355 1048.25 154.208C1047.57 155.061 1047.23 156 1047.23 157.024C1047.23 158.56 1048.12 159.797 1049.91 160.736C1051.71 161.589 1054.05 162.315 1056.95 162.912C1059.94 163.509 1063.18 164.149 1066.68 164.832C1070.27 165.515 1073.81 166.453 1077.31 167.648C1080.8 168.843 1084 170.421 1086.91 172.384C1089.89 174.347 1092.28 176.907 1094.07 180.064C1095.87 183.221 1096.76 187.147 1096.76 191.84C1096.76 197.301 1095.18 202.336 1092.03 206.944C1088.95 211.467 1084.35 215.136 1078.2 217.952C1072.06 220.683 1064.33 222.048 1055.03 222.048Z" fill="#00305C"/>
</svg>
