<svg width="1336" height="521" viewBox="0 0 1336 521" fill="none" xmlns="http://www.w3.org/2000/svg">
<path d="M708.28 110.72L688.14 171.14L627.72 191.28L647.86 130.86L708.28 110.72Z" fill="#68C7FF" stroke="#68C7FF" stroke-width="18" stroke-linecap="round" stroke-linejoin="round"/>
<path d="M351.582 60.1818H389.579L368.627 187.224C366.615 199.002 362.354 209.182 355.843 217.763C349.333 226.286 341.077 232.885 331.074 237.561C321.072 242.178 309.915 244.486 297.605 244.486C286.537 244.486 276.831 242.533 268.485 238.626C260.199 234.72 254.074 228.802 250.108 220.871C246.202 212.94 245.225 202.937 247.179 190.864H285.176C284.584 195.776 284.88 199.919 286.064 203.293C287.306 206.666 289.408 209.241 292.367 211.016C295.326 212.792 299.025 213.68 303.464 213.68C308.258 213.68 312.52 212.644 316.248 210.572C319.977 208.501 323.055 205.453 325.481 201.428C327.967 197.404 329.713 192.491 330.719 186.691L351.582 60.1818ZM511.117 113.005C511.413 105.607 509.252 99.8954 504.636 95.8707C500.079 91.8461 493.184 89.8338 483.951 89.8338C477.677 89.8338 472.232 90.7216 467.615 92.4972C462.999 94.2135 459.3 96.6106 456.518 99.6882C453.796 102.707 452.109 106.199 451.458 110.164C450.807 113.419 451.014 116.26 452.079 118.687C453.204 121.113 454.95 123.214 457.317 124.99C459.744 126.706 462.614 128.216 465.929 129.518C469.243 130.761 472.765 131.826 476.493 132.714L492.118 136.62C499.753 138.396 506.619 140.763 512.715 143.722C518.87 146.682 524.019 150.321 528.162 154.642C532.364 158.963 535.324 164.053 537.04 169.912C538.757 175.771 538.993 182.489 537.75 190.065C535.856 201.192 531.447 210.839 524.522 219.006C517.598 227.115 508.513 233.418 497.267 237.916C486.022 242.355 473.001 244.575 458.205 244.575C443.527 244.575 431.127 242.326 421.007 237.827C410.886 233.329 403.517 226.671 398.901 217.852C394.344 208.974 392.982 197.996 394.817 184.915H432.015C431.364 191.012 432.252 196.102 434.679 200.185C437.164 204.21 440.864 207.258 445.776 209.33C450.688 211.342 456.459 212.348 463.088 212.348C469.657 212.348 475.487 211.401 480.577 209.507C485.726 207.613 489.899 204.979 493.095 201.606C496.291 198.232 498.244 194.356 498.954 189.976C499.664 185.892 499.043 182.459 497.09 179.678C495.137 176.896 492 174.528 487.679 172.575C483.418 170.563 478.121 168.787 471.788 167.249L452.789 162.277C438.111 158.548 427.014 152.719 419.498 144.788C411.981 136.857 409.288 126.174 411.419 112.739C413.313 101.73 417.9 92.1124 425.179 83.8857C432.518 75.5997 441.751 69.178 452.878 64.6207C464.064 60.0043 476.286 57.696 489.544 57.696C503.038 57.696 514.431 60.0338 523.723 64.7095C533.016 69.326 539.792 75.7772 544.054 84.0632C548.315 92.3492 549.617 101.996 547.96 113.005H511.117ZM968.703 60.1818L938.518 242H905.315L845.39 127.565H843.969L824.882 242H786.441L816.626 60.1818H850.361L910.02 174.528H911.53L930.439 60.1818H968.703Z" fill="black"/>
<path d="M18.3862 460L48.5708 278.182H171.085L165.758 309.876H81.6852L74.5829 353.2H152.353L147.026 384.893H69.2562L62.1539 428.306H146.582L141.256 460H18.3862ZM236.448 278.182L262.727 340.149H264.147L311.377 278.182H356.033L285.631 369.091L327.091 460H283.678L256.69 397.944H255.269L207.684 460H162.851L235.028 369.091L194.101 278.182H236.448ZM350.173 460L380.358 278.182H452.091C465.822 278.182 477.097 280.816 485.915 286.083C494.793 291.291 501.008 298.542 504.559 307.834C508.169 317.067 508.998 327.72 507.045 339.794C505.032 351.927 500.653 362.61 493.906 371.843C487.218 381.017 478.517 388.178 467.805 393.327C457.092 398.477 444.722 401.051 430.695 401.051H384.974L390.035 370.245H429.541C436.999 370.245 443.361 368.973 448.629 366.428C453.955 363.823 458.187 360.243 461.324 355.685C464.461 351.069 466.503 345.772 467.45 339.794C468.456 333.698 468.13 328.401 466.473 323.903C464.816 319.405 461.768 315.913 457.329 313.427C452.949 310.882 447.06 309.609 439.662 309.609H413.739L388.614 460H350.173ZM512.039 460L542.223 278.182H580.664L555.806 428.306H633.754L628.427 460H512.039ZM828.622 371.577C825.308 390.99 818.886 407.473 809.357 421.026C799.888 434.58 788.317 444.878 774.645 451.921C761.032 458.964 746.354 462.486 730.611 462.486C714.098 462.486 699.864 458.728 687.909 451.211C676.012 443.694 667.401 432.834 662.074 418.629C656.747 404.366 655.741 387.172 659.056 367.049C662.252 347.577 668.614 331.064 678.143 317.511C687.672 303.898 699.302 293.54 713.033 286.438C726.764 279.277 741.531 275.696 757.333 275.696C773.728 275.696 787.873 279.484 799.769 287.06C811.725 294.635 820.336 305.585 825.604 319.908C830.931 334.171 831.937 351.394 828.622 371.577ZM790.359 367.049C792.43 354.561 792.342 344.085 790.093 335.621C787.903 327.099 783.878 320.647 778.019 316.268C772.159 311.888 764.761 309.698 755.824 309.698C746.118 309.698 737.21 312.125 729.102 316.978C721.052 321.831 714.246 328.874 708.683 338.107C703.178 347.281 699.361 358.437 697.23 371.577C695.1 384.124 695.159 394.6 697.408 403.004C699.716 411.409 703.829 417.771 709.748 422.092C715.726 426.353 723.154 428.484 732.031 428.484C741.679 428.484 750.497 426.116 758.487 421.381C766.537 416.587 773.313 409.633 778.818 400.518C784.322 391.345 788.169 380.188 790.359 367.049ZM842.361 460L872.545 278.182H944.278C958.009 278.182 969.314 280.608 978.192 285.462C987.129 290.315 993.402 297.21 997.013 306.147C1000.68 315.025 1001.54 325.501 999.587 337.575C997.575 349.648 993.225 360.006 986.537 368.647C979.908 377.288 971.267 383.946 960.614 388.622C950.019 393.239 937.738 395.547 923.771 395.547H875.741L881.068 364.652H922.794C930.133 364.652 936.407 363.646 941.615 361.634C946.823 359.621 950.937 356.603 953.955 352.578C957.033 348.554 959.045 343.552 959.992 337.575C960.998 331.478 960.643 326.388 958.927 322.305C957.21 318.162 954.103 315.025 949.605 312.894C945.107 310.704 939.188 309.609 931.849 309.609H905.926L880.802 460H842.361ZM954.222 377.259L985.738 460H943.302L912.762 377.259H954.222ZM1007.89 460L1038.07 278.182H1160.59L1155.26 309.876H1071.19L1064.08 353.2H1141.85L1136.53 384.893H1058.76L1051.66 428.306H1136.08L1130.76 460H1007.89ZM1160.96 460L1191.15 278.182H1262.88C1276.61 278.182 1287.92 280.608 1296.8 285.462C1305.73 290.315 1312.01 297.21 1315.62 306.147C1319.29 315.025 1320.14 325.501 1318.19 337.575C1316.18 349.648 1311.83 360.006 1305.14 368.647C1298.51 377.288 1289.87 383.946 1279.22 388.622C1268.62 393.239 1256.34 395.547 1242.37 395.547H1194.34L1199.67 364.652H1241.4C1248.74 364.652 1255.01 363.646 1260.22 361.634C1265.43 359.621 1269.54 356.603 1272.56 352.578C1275.64 348.554 1277.65 343.552 1278.6 337.575C1279.6 331.478 1279.25 326.388 1277.53 322.305C1275.81 318.162 1272.71 315.025 1268.21 312.894C1263.71 310.704 1257.79 309.609 1250.45 309.609H1224.53L1199.41 460H1160.96ZM1272.83 377.259L1304.34 460H1261.91L1231.37 377.259H1272.83Z" fill="black"/>
<path d="M668 246C720.467 246 763 203.467 763 151C763 98.5329 720.467 56 668 56C615.533 56 573 98.5329 573 151C573 203.467 615.533 246 668 246Z" stroke="#68C7FF" stroke-width="18" stroke-linecap="round" stroke-linejoin="round"/>
</svg>
